<svg width="82" height="54" viewBox="0 0 82 54" fill="none" xmlns="http://www.w3.org/2000/svg">
<g clip-path="url(#clip0)">
<path d="M19.4 24.5C14.7 24.5 10.6 21.6 10.6 15.2V0H1.4C0.6 0.3 0 1 0 1.9V25.9C0 27 0.9 27.9 2 27.9H26C26.9 27.9 27.6 27.3 27.9 26.5V17.7C27.1 21.8 24.1 24.5 19.4 24.5Z" fill="black"/>
<path d="M19.5002 18.8999C22.1002 18.8999 22.9002 16.5999 22.9002 14.3999V-0.100098H16.2002V14.4999C16.2002 16.7999 17.1002 18.8999 19.5002 18.8999Z" fill="black"/>
</g>
<path d="M2.976 48V44.808L0.24 39.6H1.38L3.48 43.848L5.58 39.6H6.708L3.984 44.808V48H2.976ZM9.44625 48.144C8.88625 48.144 8.38225 48.016 7.93425 47.76C7.48625 47.504 7.13025 47.144 6.86625 46.68C6.61025 46.208 6.48225 45.656 6.48225 45.024C6.48225 44.392 6.61425 43.844 6.87825 43.38C7.14225 42.908 7.49825 42.544 7.94625 42.288C8.40225 42.032 8.91025 41.904 9.47025 41.904C10.0303 41.904 10.5343 42.032 10.9823 42.288C11.4303 42.544 11.7823 42.908 12.0383 43.38C12.3023 43.844 12.4343 44.392 12.4343 45.024C12.4343 45.656 12.3023 46.208 12.0383 46.68C11.7743 47.144 11.4143 47.504 10.9583 47.76C10.5103 48.016 10.0063 48.144 9.44625 48.144ZM9.44625 47.28C9.79025 47.28 10.1103 47.196 10.4063 47.028C10.7023 46.86 10.9423 46.608 11.1263 46.272C11.3103 45.936 11.4023 45.52 11.4023 45.024C11.4023 44.528 11.3103 44.112 11.1263 43.776C10.9503 43.44 10.7143 43.188 10.4183 43.02C10.1223 42.852 9.80625 42.768 9.47025 42.768C9.12625 42.768 8.80625 42.852 8.51025 43.02C8.21425 43.188 7.97425 43.44 7.79025 43.776C7.60625 44.112 7.51425 44.528 7.51425 45.024C7.51425 45.52 7.60625 45.936 7.79025 46.272C7.97425 46.608 8.21025 46.86 8.49825 47.028C8.79425 47.196 9.11025 47.28 9.44625 47.28ZM13.8358 48V42.048H14.7478L14.8318 43.188C15.0158 42.796 15.2958 42.484 15.6718 42.252C16.0478 42.02 16.5118 41.904 17.0638 41.904V42.96H16.7878C16.4358 42.96 16.1118 43.024 15.8158 43.152C15.5198 43.272 15.2838 43.48 15.1078 43.776C14.9318 44.072 14.8438 44.48 14.8438 45V48H13.8358ZM18.1952 48V39.36H19.2032V44.556L21.6392 42.048H22.8752L20.2352 44.736L23.2112 48H21.9272L19.2032 44.916V48H18.1952ZM30.5138 48.144C29.9378 48.144 29.4138 48.032 28.9418 47.808C28.4778 47.576 28.1058 47.22 27.8258 46.74C27.5458 46.26 27.4058 45.648 27.4058 44.904V39.6H28.4138V44.916C28.4138 45.732 28.6098 46.324 29.0018 46.692C29.3938 47.06 29.9058 47.244 30.5378 47.244C31.1698 47.244 31.6778 47.06 32.0618 46.692C32.4458 46.324 32.6378 45.732 32.6378 44.916V39.6H33.6458V44.904C33.6458 45.648 33.5058 46.26 33.2258 46.74C32.9458 47.22 32.5698 47.576 32.0978 47.808C31.6258 48.032 31.0978 48.144 30.5138 48.144ZM35.2928 48V42.048H36.2048L36.2648 43.116C36.4568 42.74 36.7328 42.444 37.0928 42.228C37.4528 42.012 37.8608 41.904 38.3168 41.904C39.0208 41.904 39.5808 42.12 39.9968 42.552C40.4208 42.976 40.6328 43.632 40.6328 44.52V48H39.6248V44.628C39.6248 43.388 39.1128 42.768 38.0888 42.768C37.5768 42.768 37.1488 42.956 36.8048 43.332C36.4688 43.7 36.3008 44.228 36.3008 44.916V48H35.2928ZM42.772 40.728C42.572 40.728 42.404 40.664 42.268 40.536C42.14 40.4 42.076 40.232 42.076 40.032C42.076 39.84 42.14 39.68 42.268 39.552C42.404 39.424 42.572 39.36 42.772 39.36C42.964 39.36 43.128 39.424 43.264 39.552C43.4 39.68 43.468 39.84 43.468 40.032C43.468 40.232 43.4 40.4 43.264 40.536C43.128 40.664 42.964 40.728 42.772 40.728ZM42.268 48V42.048H43.276V48H42.268ZM46.7471 48L44.4911 42.048H45.5471L47.3351 47.028L49.1351 42.048H50.1671L47.9111 48H46.7471ZM53.6603 48.144C53.0923 48.144 52.5883 48.016 52.1483 47.76C51.7083 47.496 51.3603 47.132 51.1043 46.668C50.8563 46.204 50.7323 45.656 50.7323 45.024C50.7323 44.4 50.8563 43.856 51.1043 43.392C51.3523 42.92 51.6963 42.556 52.1363 42.3C52.5843 42.036 53.1003 41.904 53.6842 41.904C54.2603 41.904 54.7563 42.036 55.1723 42.3C55.5963 42.556 55.9203 42.896 56.1443 43.32C56.3683 43.744 56.4803 44.2 56.4803 44.688C56.4803 44.776 56.4763 44.864 56.4683 44.952C56.4683 45.04 56.4683 45.14 56.4683 45.252H51.7283C51.7523 45.708 51.8563 46.088 52.0403 46.392C52.2323 46.688 52.4683 46.912 52.7483 47.064C53.0363 47.216 53.3403 47.292 53.6603 47.292C54.0763 47.292 54.4243 47.196 54.7043 47.004C54.9843 46.812 55.1883 46.552 55.3163 46.224H56.3123C56.1523 46.776 55.8443 47.236 55.3883 47.604C54.9403 47.964 54.3643 48.144 53.6603 48.144ZM53.6603 42.756C53.1803 42.756 52.7523 42.904 52.3763 43.2C52.0083 43.488 51.7963 43.912 51.7402 44.472H55.4843C55.4603 43.936 55.2763 43.516 54.9323 43.212C54.5883 42.908 54.1643 42.756 53.6603 42.756ZM57.8163 48V42.048H58.7283L58.8123 43.188C58.9963 42.796 59.2763 42.484 59.6523 42.252C60.0283 42.02 60.4923 41.904 61.0443 41.904V42.96H60.7683C60.4163 42.96 60.0923 43.024 59.7963 43.152C59.5003 43.272 59.2643 43.48 59.0883 43.776C58.9123 44.072 58.8243 44.48 58.8243 45V48H57.8163ZM64.4557 48.144C63.7437 48.144 63.1517 47.964 62.6797 47.604C62.2077 47.244 61.9317 46.756 61.8517 46.14H62.8837C62.9477 46.452 63.1117 46.724 63.3757 46.956C63.6477 47.18 64.0117 47.292 64.4677 47.292C64.8917 47.292 65.2037 47.204 65.4037 47.028C65.6037 46.844 65.7037 46.628 65.7037 46.38C65.7037 46.02 65.5717 45.78 65.3077 45.66C65.0517 45.54 64.6877 45.432 64.2157 45.336C63.8957 45.272 63.5757 45.18 63.2557 45.06C62.9357 44.94 62.6677 44.772 62.4517 44.556C62.2357 44.332 62.1277 44.04 62.1277 43.68C62.1277 43.16 62.3197 42.736 62.7037 42.408C63.0957 42.072 63.6237 41.904 64.2877 41.904C64.9197 41.904 65.4357 42.064 65.8357 42.384C66.2437 42.696 66.4797 43.144 66.5437 43.728H65.5477C65.5077 43.424 65.3757 43.188 65.1517 43.02C64.9357 42.844 64.6437 42.756 64.2757 42.756C63.9157 42.756 63.6357 42.832 63.4357 42.984C63.2437 43.136 63.1477 43.336 63.1477 43.584C63.1477 43.824 63.2717 44.012 63.5197 44.148C63.7757 44.284 64.1197 44.4 64.5517 44.496C64.9197 44.576 65.2677 44.676 65.5957 44.796C65.9317 44.908 66.2037 45.08 66.4117 45.312C66.6277 45.536 66.7357 45.864 66.7357 46.296C66.7437 46.832 66.5397 47.276 66.1237 47.628C65.7157 47.972 65.1597 48.144 64.4557 48.144ZM68.7877 40.728C68.5877 40.728 68.4197 40.664 68.2837 40.536C68.1557 40.4 68.0917 40.232 68.0917 40.032C68.0917 39.84 68.1557 39.68 68.2837 39.552C68.4197 39.424 68.5877 39.36 68.7877 39.36C68.9797 39.36 69.1437 39.424 69.2797 39.552C69.4157 39.68 69.4837 39.84 69.4837 40.032C69.4837 40.232 69.4157 40.4 69.2797 40.536C69.1437 40.664 68.9797 40.728 68.7877 40.728ZM68.2837 48V42.048H69.2917V48H68.2837ZM73.3988 48C72.8548 48 72.4268 47.868 72.1148 47.604C71.8028 47.34 71.6468 46.864 71.6468 46.176V42.9H70.6147V42.048H71.6468L71.7788 40.62H72.6548V42.048H74.4068V42.9H72.6548V46.176C72.6548 46.552 72.7308 46.808 72.8828 46.944C73.0348 47.072 73.3028 47.136 73.6868 47.136H74.3108V48H73.3988ZM76.3354 50.64L77.8114 47.424H77.4634L75.0994 42.048H76.1914L78.1594 46.68L80.2474 42.048H81.2914L77.3914 50.64H76.3354Z" fill="black"/>
<defs>
<clipPath id="clip0">
<rect width="28" height="28" fill="white"/>
</clipPath>
</defs>
</svg>
